#!OML:ASF E:\I on waltz\AllaLogoMonkeySwing\Project 1\Capture day 1\Session 1\Subject1.ASF
:FULLY-SPECIFIED
:DEGREES
308
root 1.68935 17.8473 4.17968 0.932073 2.30313 -2.10653
lowerback 12.3047 0.629738 -1.15925
upperback -0.160427 0.814417 1.9763
thorax -7.13303 0.477095 2.59936
lowerneck -16.8974 1.20233 -0.944057
upperneck 4.25843 2.0489 -2.81352
head 3.9968 0.822026 -0.555219
rclavicle -6.73383e-015 -5.1684e-015
rhumerus -26.3697 10.7842 -89.4212
rradius 39.1711
rwrist -5.523
rhand -4.77847 -37.3592
rfingers 7.12502
rthumb 21.0062 -66.2416
lclavicle -6.73383e-015 -5.1684e-015
lhumerus -33.3864 -8.42179 93.3637
lradius 53.3612
lwrist 3.64061
lhand -4.30618 -16.1612
lfingers 7.12502
lthumb 21.4599 12.6701
rfemur -6.99199 -2.80156 18.1138
rtibia 20.459
rfoot -12.5704 -13.2089
rtoes 19.8992
lfemur -3.94957 -1.28933 -15.1553
ltibia 17.0995
lfoot -14.7208 3.11234
ltoes -26.7367
309
root 1.68194 17.8621 4.25011 0.790506 2.25196 -2.24581
lowerback 11.4194 0.632187 -1.18455
upperback -0.462005 0.822289 2.00883
thorax -6.95485 0.483805 2.64902
lowerneck -16.6741 1.18425 -0.937489
upperneck 5.35421 2.03632 -2.65461
head 4.30046 0.811012 -0.505946
rclavicle 4.69629e-015 -1.23246e-014
rhumerus -26.7804 9.63304 -89.2907
rradius 38.8056
rwrist -5.76491
rhand -4.69901 -37.3307
rfingers 7.12502
rthumb 21.0826 -66.2046
lclavicle 4.69629e-015 -1.23246e-014
lhumerus -33.5614 -6.86897 92.6539
lradius 52.8622
lwrist 2.34707
lhand -4.22013 -15.552
lfingers 7.12502
lthumb 21.5426 13.2699
rfemur -5.94697 -2.15346 18.3434
rtibia 19.2987
rfoot -12.2985 -13.7489
rtoes 19.6884
lfemur -2.72378 -1.54691 -14.989
ltibia 15.5742
lfoot -14.2659 3.2628
ltoes -26.9823
310
root 1.68072 17.8687 4.30903 0.699465 2.16317 -2.31589
lowerback 10.6653 0.636847 -1.15803
upperback -0.757533 0.835732 1.9853
thorax -6.84123 0.490787 2.60913
lowerneck -16.5926 1.15755 -0.833851
upperneck 6.45762 2.00612 -2.62817
head 4.63218 0.784894 -0.514369
rclavicle 1.34552e-014 -1.78906e-015
rhumerus -27.0698 8.45719 -89.1623
rradius 38.3326
rwrist -5.79156
rhand -4.93114 -37.3446
rfingers 7.12502
rthumb 20.8596 -66.2432
lclavicle 1.34552e-014 -1.78906e-015
lhumerus -33.6604 -5.12089 91.8858
lradius 52.3685
lwrist 1.03244
lhand -4.01596 -14.7277
lfingers 7.12502
lthumb 21.7386 14.0716
rfemur -5.17718 -1.75979 18.4441
rtibia 18.4377
rfoot -12.1345 -13.9734
rtoes 19.5753
lfemur -1.71976 -1.6681 -14.9049
ltibia 14.3555
lfoot -13.9537 3.33625
ltoes -26.7968
311
root 1.68126 17.8658 4.3571 0.585288 2.07327 -2.31973
lowerback 10.0969 0.654 -1.1686
upperback -0.99725 0.859602 1.9574
thorax -6.77371 0.504034 2.58388
lowerneck -16.7074 1.10876 -0.827089
upperneck 7.51388 1.96413 -2.56213
head 4.98017 0.752975 -0.495622
rclavicle -5.7896e-015 -7.15625e-015
rhumerus -27.1169 6.93664 -88.9197
rradius 37.5902
rwrist -5.30128
rhand -5.39227 -37.129
rfingers 7.12502
rthumb 20.4165 -66.0757
lclavicle -5.7896e-015 -7.15625e-015
lhumerus -33.5433 -3.10285 91.1354
lradius 51.6896
lwrist -0.216077
lhand -3.88087 -14.1196
lfingers 7.12502
lthumb 21.8684 14.6646
rfemur -4.56066 -1.4492 18.4436
rtibia 17.8503
rfoot -12.0939 -14.0805
rtoes 19.643
lfemur -0.815397 -1.72802 -14.8858
ltibia 13.3922
lfoot -13.9075 3.37235
ltoes -26.3984
312
root 1.68013 17.8594 4.39753 0.420016 2.00286 -2.33889
lowerback 9.68931 0.679137 -1.17053
upperback -1.19333 0.895509 1.94585
thorax -6.75156 0.523207 2.56897
lowerneck -16.8513 1.08358 -0.890524
upperneck 8.46471 1.95889 -2.43996
head 5.30045 0.742663 -0.444917
rclavicle -1.38404e-014 -2.127e-014
rhumerus -27.0272 4.89863 -88.5438
rradius 36.6016
rwrist -4.08171
rhand -5.70948 -36.8198
rfingers 7.12502
rthumb 20.1116 -65.7988
lclavicle -1.38404e-014 -2.127e-014
lhumerus -33.2998 -0.985079 90.4152
lradius 50.8047
lwrist -1.27658
lhand -3.93659 -13.7586
lfingers 7.12502
lthumb 21.8148 15.0319
rfemur -4.021 -1.28104 18.4612
rtibia 17.4808
rfoot -12.0741 -14.0992
rtoes 19.6624
lfemur -0.0258979 -1.70668 -14.8398
ltibia 12.6549
lfoot -13.8019 3.33741
ltoes -26.604
313
root 1.67788 17.857 4.43263 0.214992 1.9473 -2.43958
lowerback 9.34896 0.666842 -1.08821
upperback -1.34439 0.890995 1.93996
thorax -6.71597 0.518877 2.51847
lowerneck -16.9773 1.09942 -0.806281
upperneck 9.37929 1.98875 -2.43914
head 5.61122 0.746522 -0.452979
rclavicle -3.37313e-015 -1.86858e-014
rhumerus -26.8826 2.80785 -88.2078
rradius 35.4584
rwrist -2.69688
rhand -5.95837 -36.6201
rfingers 7.12502
rthumb 19.8724 -65.6241
lclavicle -3.37313e-015 -1.86858e-014
lhumerus -33.0276 1.18045 89.6227
lradius 49.7574
lwrist -2.08357
lhand -4.25302 -13.6707
lfingers 7.12502
lthumb 21.511 15.1548
rfemur -3.54015 -1.10097 18.569
rtibia 17.2352
rfoot -12.1505 -14.1088
rtoes 20.0668
lfemur 0.616507 -1.66267 -14.7036
ltibia 12.1602
lfoot -13.7726 3.24401
ltoes -27.0599
314
root 1.67688 17.8559 4.46074 0.00407693 1.86556 -2.56746
lowerback 9.05506 0.623342 -1.00179
upperback -1.44858 0.845602 1.95663
thorax -6.65515 0.494086 2.49522
lowerneck -17.0884 1.15195 -0.66668
upperneck 10.1913 2.06339 -2.52098
head 5.89056 0.769614 -0.492153
rclavicle -6.74936e-015 5.96354e-015
rhumerus -26.6433 0.882474 -87.9095
rradius 34.0922
rwrist -1.50967
rhand -6.26357 -36.3876
rfingers 7.12502
rthumb 19.579 -65.4217
lclavicle -6.74936e-015 5.96354e-015
lhumerus -32.7564 3.58767 88.7909
lradius 48.5758
lwrist -2.64248
lhand -4.95131 -13.7938
lfingers 7.12502
lthumb 20.8402 15.1069
rfemur -3.11535 -0.864087 18.7092
rtibia 17.0186
rfoot -12.2515 -14.1485
rtoes 20.6482
lfemur 1.13451 -1.71119 -14.561
ltibia 11.858
lfoot -13.6877 3.2461
ltoes -26.8247
315
root 1.67732 17.8531 4.48627 -0.194654 1.76741 -2.64111
lowerback 8.75326 0.59252 -0.986174
upperback -1.51481 0.809565 1.99404
thorax -6.55149 0.476307 2.5321
lowerneck -17.204 1.20024 -0.726802
upperneck 10.9225 2.15266 -2.43269
head 6.14226 0.806626 -0.443421
rclavicle 1.62444e-015 5.96354e-015
rhumerus -26.338 -1.15262 -87.5069
rradius 32.4563
rwrist -0.388331
rhand -6.69949 -36.186
rfingers 7.12502
rthumb 19.1598 -65.2622
lclavicle 1.62444e-015 5.96354e-015
lhumerus -32.5442 6.2996 87.9998
lradius 47.287
lwrist -3.07646
lhand -5.8877 -14.1574
lfingers 7.12502
lthumb 19.9403 14.8396
rfemur -2.72987 -0.752286 18.7978
rtibia 16.8575
rfoot -12.2866 -14.1625
rtoes 20.8236
lfemur 1.52018 -1.76632 -14.5041
ltibia 11.67
lfoot -13.6874 3.33758
ltoes -27.1323
316
root 1.67668 17.8513 4.51116 -0.44364 1.67254 -2.61041
lowerback 8.47158 0.60471 -1.07671
upperback -1.51446 0.81701 2.00833
thorax -6.39233 0.482272 2.598
lowerneck -17.2821 1.18735 -0.810942
upperneck 11.5204 2.15748 -2.32493
head 6.3448 0.805501 -0.393213
rclavicle -1.61986e-014 -2.44505e-014
rhumerus -26.0213 -3.77763 -86.9134
rradius 30.6593
rwrist 1.00017
rhand -7.02581 -36.0777
rfingers 7.12502
rthumb 18.846 -65.1848
lclavicle -1.61986e-014 -2.44505e-014
lhumerus -32.2838 9.10893 87.2691
lradius 45.7743
lwrist -3.2641
lhand -6.91926 -14.5757
lfingers 7.12502
lthumb 18.9485 14.5213
rfemur -2.33565 -0.700656 18.7866
rtibia 16.8107
rfoot -12.3033 -14.1879
rtoes 20.5233
lfemur 1.85588 -1.81098 -14.5692
ltibia 11.4958
lfoot -13.5512 3.4219
ltoes -27.646
317
root 1.67591 17.8473 4.53265 -0.714609 1.52415 -2.49603
lowerback 8.25911 0.643529 -1.26011
upperback -1.49368 0.84843 1.99005
thorax -6.2535 0.50262 2.67871
lowerneck -17.3385 1.17145 -0.742438
upperneck 12.0615 2.14385 -2.37469
head 6.5297 0.789873 -0.420371
rclavicle -6.90233e-015 -8.15017e-015
rhumerus -25.7715 -6.9084 -86.1795
rradius 28.7518
rwrist 2.72105
rhand -7.38879 -35.8634
rfingers 7.12502
rthumb 18.4969 -65.004
lclavicle -6.90233e-015 -8.15017e-015
lhumerus -32.0611 11.9785 86.5044
lradius 44.0798
lwrist -3.16565
lhand -8.08494 -14.8764
lfingers 7.12502
lthumb 17.8271 14.3265
rfemur -1.99656 -0.59914 18.6923
rtibia 16.8686
rfoot -12.3754 -14.2292
rtoes 19.8496
lfemur 2.37998 -1.86401 -14.7346
ltibia 11.2951
lfoot -13.4666 3.58029
ltoes -27.8411
318
root 1.67578 17.8428 4.55397 -0.95569 1.37788 -2.30858
lowerback 8.0496 0.672424 -1.50971
upperback -1.48527 0.859015 1.94014
thorax -6.12902 0.514501 2.76668
lowerneck -17.4757 1.1931 -0.713683
upperneck 12.7385 2.18055 -2.32986
head 6.77164 0.802608 -0.404742
rclavicle -1.75132e-014 -1.23246e-014
rhumerus -25.625 -9.99152 -85.4137
rradius 26.742
rwrist 4.4011
rhand -8.0456 -35.7375
rfingers 7.12502
rthumb 17.865 -64.937
lclavicle -1.75132e-014 -1.23246e-014
lhumerus -32.0111 14.829 85.6674
lradius 42.3403
lwrist -2.8617
lhand -9.34722 -14.9909
lfingers 7.12502
lthumb 16.6122 14.3182
rfemur -1.73173 -0.457922 18.5071
rtibia 16.9896
rfoot -12.5836 -14.275
rtoes 19.6124
lfemur 2.88245 -1.93206 -14.9794
ltibia 11.0612
lfoot -13.4432 3.73289
ltoes -27.7053
